<?xml version="1.0" standalone="no"?>
<!DOCTYPE svg PUBLIC "-//W3C//DTD SVG 20010904//EN"
 "http://www.w3.org/TR/2001/REC-SVG-20010904/DTD/svg10.dtd">
<svg version="1.0" xmlns="http://www.w3.org/2000/svg"
 width="512.000000pt" height="512.000000pt" viewBox="0 0 512.000000 512.000000"
 preserveAspectRatio="xMidYMid meet">

<g transform="translate(0.000000,512.000000) scale(0.100000,-0.100000)"
fill="#f5b754" stroke="none">
<path d="M2024 4241 c-33 -9 -80 -28 -105 -42 -24 -14 -458 -297 -963 -630
-642 -422 -925 -613 -938 -634 -16 -28 -18 -58 -18 -375 0 -325 1 -347 20
-377 33 -55 62 -63 222 -63 339 0 540 -41 783 -159 366 -179 640 -493 755
-867 40 -129 58 -163 110 -199 l42 -30 1491 -3 c1687 -3 1552 -9 1630 78 24
26 49 66 55 88 17 57 17 3007 0 3064 -6 22 -31 62 -55 88 -78 87 48 80 -1552
79 -1312 0 -1420 -2 -1477 -18z m2917 -160 l29 -29 0 -1492 0 -1492 -29 -29
-29 -29 -1465 0 c-1382 0 -1465 1 -1479 18 -14 16 -68 176 -68 201 0 8 222 11
797 11 727 0 798 1 815 17 26 23 24 84 -3 109 -20 18 -51 19 -855 22 l-834 2
-21 43 c-59 115 -194 285 -316 396 -231 211 -519 355 -823 411 -80 15 -176 23
-313 27 l-197 6 2 295 3 295 910 599 c501 329 926 605 945 615 19 9 49 20 65
24 17 4 661 7 1433 8 l1404 1 29 -29z"/>
<path d="M2104 3961 c-39 -10 69 59 -904 -579 -465 -304 -858 -567 -875 -583
-30 -29 -30 -30 -33 -157 -4 -146 6 -192 47 -221 29 -21 40 -21 663 -21 624 0
635 0 656 20 29 27 29 80 1 106 -20 18 -47 19 -620 22 l-599 2 0 78 1 77 640
420 c353 231 735 482 851 558 l211 137 1266 -2 1266 -3 3 -632 2 -633 -1393 0
c-1526 0 -1425 4 -1448 -57 -10 -28 10 -77 36 -87 9 -3 652 -6 1429 -6 l1413
0 33 23 c18 12 43 35 54 50 21 28 21 36 24 695 l2 667 -22 45 c-17 33 -35 51
-68 68 l-44 22 -1281 -1 c-704 -1 -1294 -4 -1311 -8z"/>
<path d="M3886 2250 c-74 -23 -96 -73 -96 -222 0 -125 12 -165 63 -202 27 -20
43 -21 343 -24 303 -3 317 -2 359 18 64 31 75 62 75 210 0 147 -11 179 -74
210 -40 19 -60 20 -342 19 -164 0 -312 -5 -328 -9z m314 -220 l0 -81 -127 3
-128 3 -3 64 c-2 35 -1 70 2 77 4 11 34 14 131 14 l125 0 0 -80z m280 0 l0
-80 -65 0 -65 0 0 80 0 80 65 0 65 0 0 -80z"/>
<path d="M3760 1360 c-27 -27 -26 -81 1 -106 20 -18 44 -19 403 -22 209 -1
391 0 404 3 32 8 62 41 62 69 0 13 -9 35 -21 50 l-20 26 -405 0 c-391 0 -405
-1 -424 -20z"/>
</g>
</svg>
