<?xml version="1.0" standalone="no"?>
<!DOCTYPE svg PUBLIC "-//W3C//DTD SVG 20010904//EN"
 "http://www.w3.org/TR/2001/REC-SVG-20010904/DTD/svg10.dtd">
<svg version="1.0" xmlns="http://www.w3.org/2000/svg"
 width="512.000000pt" height="512.000000pt" viewBox="0 0 512.000000 512.000000"
 preserveAspectRatio="xMidYMid meet">

<g transform="translate(0.000000,512.000000) scale(0.100000,-0.100000)"
fill="#f5b754" stroke="none">
<path d="M735 4628 c-27 -5 -87 -27 -133 -48 -108 -51 -222 -161 -270 -260
-113 -234 -71 -500 107 -679 54 -53 90 -78 160 -112 l91 -44 0 -925 0 -925
-90 -42 c-204 -97 -330 -296 -330 -523 0 -168 52 -293 171 -413 152 -153 350
-209 553 -157 111 28 190 73 271 155 140 141 199 328 164 521 -34 187 -199
382 -370 439 l-49 17 0 384 0 384 695 0 695 0 0 -382 -1 -383 -92 -44 c-74
-35 -106 -58 -162 -115 -115 -116 -170 -252 -169 -416 1 -248 171 -478 409
-553 98 -31 251 -31 352 1 183 57 332 213 389 408 21 72 23 208 5 284 -41 170
-159 316 -318 391 l-92 44 -1 382 0 382 713 3 712 3 67 33 c83 40 157 119 190
200 22 56 23 67 26 452 l3 395 89 42 c120 58 210 146 267 264 48 98 63 161 63
267 0 162 -54 288 -174 407 -155 154 -346 207 -550 155 -110 -28 -190 -74
-271 -155 -140 -140 -199 -328 -164 -521 34 -187 199 -382 370 -439 l49 -17 0
-362 c0 -311 -2 -365 -16 -384 l-15 -22 -680 0 -679 0 0 383 1 382 92 44 c74
35 106 58 162 115 115 116 170 252 169 416 -3 331 -286 598 -614 577 -113 -7
-203 -37 -294 -98 -164 -109 -259 -285 -260 -479 -1 -164 54 -300 169 -416 56
-57 88 -80 162 -115 l92 -44 1 -382 0 -383 -695 0 -695 0 0 384 0 384 49 17
c171 57 336 252 370 439 24 130 2 270 -61 389 -43 81 -155 194 -235 235 -119
63 -268 85 -398 60z m204 -324 c94 -28 167 -121 178 -228 11 -109 -56 -222
-158 -266 -42 -17 -66 -21 -118 -18 -77 5 -125 25 -174 75 -50 49 -70 97 -75
174 -5 85 23 154 85 209 76 67 161 84 262 54z m1737 -12 c115 -59 174 -188
140 -305 -21 -71 -65 -129 -123 -164 -42 -25 -58 -28 -133 -28 -75 0 -91 3
-133 28 -58 35 -102 93 -123 164 -39 135 42 277 186 324 41 14 142 3 186 -19z
m1677 12 c64 -22 130 -82 157 -145 17 -42 21 -66 18 -118 -5 -77 -25 -125 -75
-174 -49 -50 -97 -70 -174 -75 -243 -15 -372 279 -198 449 76 74 174 97 272
63z m-3387 -2998 c98 -46 162 -156 151 -262 -22 -217 -272 -318 -437 -177
-102 88 -120 242 -41 354 71 101 213 138 327 85z m1715 -4 c158 -82 193 -289
71 -415 -60 -62 -105 -82 -192 -82 -57 0 -84 5 -116 22 -116 62 -174 189 -140
307 36 121 133 196 256 196 55 0 78 -5 121 -28z"/>
<path d="M4120 1634 c-162 -43 -309 -165 -379 -315 -64 -137 -76 -256 -41
-393 28 -110 74 -190 155 -271 180 -180 440 -224 671 -114 94 45 218 168 262
259 43 88 62 169 62 262 0 106 -15 169 -63 267 -73 150 -219 268 -378 306 -80
18 -217 18 -289 -1z m261 -328 c47 -22 103 -78 125 -125 29 -58 30 -157 4
-220 -44 -102 -157 -169 -266 -158 -219 23 -319 271 -177 437 55 64 121 92
208 88 40 -2 86 -11 106 -22z"/>
</g>
</svg>
