<?xml version="1.0" standalone="no"?>
<!DOCTYPE svg PUBLIC "-//W3C//DTD SVG 20010904//EN"
 "http://www.w3.org/TR/2001/REC-SVG-20010904/DTD/svg10.dtd">
<svg version="1.0" xmlns="http://www.w3.org/2000/svg"
 width="512.000000pt" height="512.000000pt" viewBox="0 0 512.000000 512.000000"
 preserveAspectRatio="xMidYMid meet">

<g transform="translate(0.000000,512.000000) scale(0.100000,-0.100000)"
fill="#f5b754" stroke="none">
<path d="M1764 4571 c-23 -10 -52 -34 -65 -52 -24 -34 -24 -35 -27 -346 l-3
-312 -617 -3 -617 -3 -67 -26 c-37 -14 -89 -41 -117 -58 -118 -76 -218 -226
-241 -361 -8 -46 -10 -420 -8 -1255 l3 -1190 26 -67 c72 -185 220 -314 404
-353 105 -22 4145 -22 4250 0 95 20 178 63 252 129 71 65 116 131 152 224 l26
67 3 1190 c2 835 0 1209 -8 1255 -23 135 -123 285 -241 361 -28 17 -80 44
-117 58 l-67 26 -617 3 -617 3 -3 312 c-3 311 -3 312 -27 346 -13 18 -42 42
-65 52 -39 18 -81 19 -796 19 -715 0 -757 -1 -796 -19z m1366 -506 l0 -205
-570 0 -570 0 0 205 0 205 570 0 570 0 0 -205z m-2240 -1871 l0 -1346 -197 4
c-222 5 -245 10 -306 73 -70 72 -67 12 -67 1270 0 1267 -4 1201 70 1275 59 59
103 68 318 69 l182 1 0 -1346z m3018 4 l-3 -1343 -1345 0 -1345 0 -3 1343 -2
1342 1350 0 1350 0 -2 -1342z m731 1326 c70 -20 125 -75 145 -145 14 -46 16
-190 16 -1184 0 -1258 3 -1198 -67 -1270 -61 -63 -84 -68 -305 -73 l-198 -4 0
1346 0 1346 178 0 c132 0 192 -4 231 -16z"/>
</g>
</svg>
